<svg width="20" height="21" viewBox="0 0 20 21" fill="none" xmlns="http://www.w3.org/2000/svg">
<path d="M10.8332 14.037H2.49984C2.27882 14.037 2.06686 14.1248 1.91058 14.2811C1.7543 14.4374 1.6665 14.6494 1.6665 14.8704C1.6665 15.0914 1.7543 15.3033 1.91058 15.4596C2.06686 15.6159 2.27882 15.7037 2.49984 15.7037H10.8332C11.0542 15.7037 11.2661 15.6159 11.4224 15.4596C11.5787 15.3033 11.6665 15.0914 11.6665 14.8704C11.6665 14.6494 11.5787 14.4374 11.4224 14.2811C11.2661 14.1248 11.0542 14.037 10.8332 14.037ZM2.49984 7.37037H17.4998C17.7209 7.37037 17.9328 7.28257 18.0891 7.12629C18.2454 6.97001 18.3332 6.75805 18.3332 6.53704C18.3332 6.31602 18.2454 6.10406 18.0891 5.94778C17.9328 5.7915 17.7209 5.7037 17.4998 5.7037H2.49984C2.27882 5.7037 2.06686 5.7915 1.91058 5.94778C1.7543 6.10406 1.6665 6.31602 1.6665 6.53704C1.6665 6.75805 1.7543 6.97001 1.91058 7.12629C2.06686 7.28257 2.27882 7.37037 2.49984 7.37037ZM17.4998 9.87037H2.49984C2.27882 9.87037 2.06686 9.95817 1.91058 10.1144C1.7543 10.2707 1.6665 10.4827 1.6665 10.7037C1.6665 10.9247 1.7543 11.1367 1.91058 11.293C2.06686 11.4492 2.27882 11.537 2.49984 11.537H17.4998C17.7209 11.537 17.9328 11.4492 18.0891 11.293C18.2454 11.1367 18.3332 10.9247 18.3332 10.7037C18.3332 10.4827 18.2454 10.2707 18.0891 10.1144C17.9328 9.95817 17.7209 9.87037 17.4998 9.87037Z" fill="#25324B"/>
</svg>
