<svg width="14" height="14" viewBox="0 0 14 14" fill="none" xmlns="http://www.w3.org/2000/svg">
<path d="M13.3341 5.35999C13.6209 6.45204 13.6209 7.54396 13.334 8.63601C13.047 9.72817 12.4957 10.6823 11.6796 11.4989C10.8636 12.3155 9.9099 12.8675 8.81864 13.1546C7.72737 13.4418 6.6362 13.4418 5.54485 13.1547C4.45344 12.8675 3.49979 12.3156 2.68383 11.4991C1.86782 10.6825 1.31645 9.72823 1.02936 8.63614C0.742482 7.54411 0.742482 6.45218 1.02938 5.36005C1.31639 4.26796 1.86786 3.31369 2.68387 2.49711C3.49987 1.68054 4.45356 1.1286 5.54485 0.841426C6.63604 0.554228 7.72733 0.554394 8.81857 0.841487C9.90984 1.12872 10.8634 1.68066 11.6794 2.49719C12.4955 3.31379 13.0471 4.26812 13.3341 5.35999ZM11.0236 10.8426C11.9918 9.87368 12.517 8.70741 12.599 7.3439L12.4234 7.31467C12.353 7.30287 12.2008 7.2971 11.9666 7.297C11.7324 7.29702 11.4931 7.31357 11.2492 7.34678C11.005 7.38007 10.6967 7.44835 10.3237 7.55197C9.95085 7.65551 9.57891 7.79119 9.20797 7.95925C9.5868 9.23691 9.85234 10.4637 10.0046 11.6397C10.3872 11.4052 10.7269 11.1395 11.0236 10.8426ZM6.55526 12.3957C7.40238 12.4934 8.22228 12.3997 9.01488 12.1144C8.8548 10.9853 8.59312 9.77016 8.23008 8.46911C6.73081 9.34429 5.39164 10.3718 4.21258 11.5518C4.9271 12.0166 5.70803 12.298 6.55526 12.3957ZM2.2123 9.19862C2.4797 9.81009 2.85558 10.3581 3.33977 10.8427C3.39446 10.8974 3.43747 10.9364 3.46863 10.9599C4.88208 9.54543 6.37743 8.41229 7.95486 7.56063C7.83777 7.19336 7.72454 6.87297 7.61516 6.59942C7.59155 6.60745 7.55762 6.62391 7.51268 6.6493C7.46765 6.67482 7.43557 6.69338 7.41586 6.70518L7.1231 6.84579C6.91998 6.9396 6.63196 7.04025 6.25926 7.14766C5.88629 7.25494 5.47351 7.35173 5.02054 7.43765C4.56755 7.52356 4.04632 7.55874 3.45669 7.54298C2.86715 7.52738 2.30112 7.44346 1.75843 7.29111C1.79354 7.95139 1.94497 8.58732 2.2123 9.19862ZM3.33977 3.15343C2.42612 4.06771 1.90298 5.17736 1.77016 6.48229L1.79357 6.32988C2.23092 6.49408 2.72092 6.58204 3.26363 6.59363C3.8063 6.60527 4.28564 6.57317 4.7015 6.49703C5.1172 6.42073 5.54469 6.31329 5.98416 6.17473C6.42328 6.03595 6.7161 5.93457 6.86248 5.86986C7.0089 5.80537 7.12515 5.75366 7.21108 5.71464L7.22862 5.70887L7.24041 5.69707C6.6195 4.31018 5.92069 3.06362 5.14366 1.95798C4.45639 2.23921 3.85526 2.6377 3.33977 3.15343ZM8.33851 1.68522C7.60246 1.52695 6.87122 1.51817 6.14524 1.6588C6.88301 2.71772 7.54895 3.88395 8.14224 5.15769C9.04038 4.50143 9.78209 3.64569 10.3678 2.59086C9.75091 2.14548 9.07433 1.84355 8.33851 1.68522ZM11.0177 3.26481C10.9864 3.31163 10.9464 3.3694 10.8976 3.43769C10.8488 3.50599 10.7892 3.58914 10.7189 3.68683C10.6487 3.7844 10.5675 3.89097 10.4759 4.00617C10.3841 4.12145 10.2846 4.24252 10.1771 4.36961C10.0698 4.49659 9.95257 4.62938 9.8258 4.76806C9.69872 4.90689 9.56705 5.04457 9.43037 5.18134C9.29384 5.31797 9.14627 5.45772 8.98828 5.6003C8.83031 5.74298 8.67109 5.87465 8.51106 5.99578C8.51882 6.02714 8.53644 6.07401 8.5638 6.13653C8.59113 6.19898 8.61254 6.24603 8.6284 6.27704C8.7181 6.51547 8.81765 6.78706 8.92682 7.09185C9.30563 6.93172 9.68828 6.80071 10.075 6.69902C10.4615 6.59755 10.7834 6.52924 11.0411 6.49397C11.299 6.45889 11.5557 6.43841 11.8113 6.43254C12.0671 6.4266 12.2387 6.42864 12.3267 6.43828C12.4147 6.4481 12.4996 6.45883 12.5815 6.47053L12.5933 6.47055C12.4683 5.20468 11.959 4.11257 11.0646 3.19446L11.0177 3.26481Z" fill="white"/>
</svg>
