<svg width="18" height="23" viewBox="0 0 18 23" fill="none" xmlns="http://www.w3.org/2000/svg">
<path d="M5.4678 7.39457L5.46555 7.3964L5.46341 7.39848L5.4678 7.39457ZM15.4219 7.20804C15.3523 7.14099 15.2751 7.08232 15.1919 7.03323C15.0741 6.9639 14.9433 6.91946 14.8076 6.90268C14.672 6.88589 14.5343 6.89711 14.4031 6.93565C14.272 6.97418 14.1501 7.03921 14.0451 7.12671C13.9401 7.21421 13.8541 7.32233 13.7925 7.44437C13.448 8.12306 12.9729 8.72706 12.3945 9.22171C12.483 8.72332 12.5276 8.21813 12.5278 7.71194C12.5297 6.17205 12.1234 4.65915 11.3505 3.32731C10.5775 1.99546 9.4654 0.892232 8.12741 0.129944C7.98002 0.0463916 7.81382 0.00165409 7.6444 -7.02614e-05C7.47498 -0.00179462 7.3079 0.0395507 7.15884 0.120086C7.00977 0.200622 6.88362 0.317707 6.7922 0.460355C6.70078 0.603003 6.6471 0.766538 6.6362 0.935614C6.58024 1.88379 6.33236 2.81073 5.90759 3.66028C5.48282 4.50983 4.88999 5.2643 4.16503 5.87797L3.93456 6.06547C3.17648 6.57556 2.50546 7.20438 1.94726 7.92777C1.07958 9.02088 0.478506 10.3011 0.191718 11.667C-0.0950709 13.0328 -0.0596893 14.4467 0.295056 15.7964C0.649802 17.1462 1.31415 18.3948 2.23543 19.4431C3.1567 20.4915 4.30956 21.3107 5.60257 21.836C5.75439 21.898 5.91914 21.9217 6.08229 21.9051C6.24545 21.8884 6.40198 21.8318 6.5381 21.7403C6.67422 21.6488 6.78573 21.5252 6.8628 21.3805C6.93987 21.2357 6.98013 21.0742 6.98003 20.9102C6.97932 20.8041 6.96252 20.6988 6.93023 20.5977C6.7065 19.7567 6.64208 18.8813 6.74028 18.0166C7.68652 19.8014 9.20542 21.216 11.0528 22.0332C11.2783 22.1341 11.5332 22.1477 11.7681 22.0713C13.2277 21.6002 14.5425 20.7638 15.5878 19.6414C16.633 18.519 17.3739 17.148 17.74 15.6586C18.1061 14.1693 18.0853 12.611 17.6796 11.132C17.2739 9.6529 16.4967 8.30215 15.4219 7.20804ZM11.5171 20.0391C10.6454 19.5973 9.87649 18.977 9.26028 18.2186C8.64406 17.4601 8.19438 16.5804 7.94046 15.6368C7.86291 15.319 7.80293 14.9972 7.76077 14.6729C7.73221 14.4663 7.63981 14.2739 7.4965 14.1224C7.35318 13.971 7.16612 13.8681 6.96146 13.8282C6.89841 13.8157 6.8343 13.8095 6.77003 13.8096C6.59427 13.8096 6.42161 13.8558 6.26944 13.9438C6.11728 14.0318 5.991 14.1583 5.90333 14.3106C5.0736 15.7417 4.65633 17.3746 4.69776 19.0284C3.968 18.461 3.35811 17.7544 2.90344 16.9496C2.44876 16.1447 2.15835 15.2577 2.04903 14.3398C1.93971 13.4219 2.01366 12.4914 2.26658 11.6023C2.51951 10.7132 2.94639 9.88314 3.52247 9.16022C3.95989 8.59206 4.48756 8.09952 5.08447 7.70222C5.11032 7.68554 5.1351 7.66728 5.15869 7.64753C5.15869 7.64753 5.45538 7.40205 5.46552 7.39643C6.89022 6.1914 7.90353 4.57195 8.36426 2.76374C9.45383 3.77098 10.1804 5.10977 10.431 6.57225C10.6817 8.03473 10.4425 9.53906 9.75049 10.8516C9.65907 11.0268 9.62157 11.2251 9.64271 11.4215C9.66386 11.618 9.74271 11.8037 9.86932 11.9554C9.99592 12.1071 10.1646 12.2179 10.3541 12.2738C10.5436 12.3297 10.7454 12.3283 10.9341 12.2696C12.4659 11.7895 13.8138 10.8516 14.7964 9.58214C15.3869 10.4544 15.773 11.4487 15.9259 12.491C16.0787 13.5332 15.9944 14.5965 15.6792 15.6017C15.364 16.6068 14.826 17.5279 14.1054 18.2962C13.3847 19.0645 12.5 19.6603 11.5171 20.0391L11.5171 20.0391Z" fill="#26A4FF"/>
</svg>
