<svg width="21" height="20" viewBox="0 0 21 20" fill="none" xmlns="http://www.w3.org/2000/svg">
<g clip-path="url(#clip0_31890_486)">
<path fill-rule="evenodd" clip-rule="evenodd" d="M10.4998 3.33325C10.9601 3.33325 11.3332 3.70635 11.3332 4.16659V15.8333C11.3332 16.2935 10.9601 16.6666 10.4998 16.6666C10.0396 16.6666 9.6665 16.2935 9.6665 15.8333V4.16659C9.6665 3.70635 10.0396 3.33325 10.4998 3.33325Z" fill="#4640DE"/>
<path fill-rule="evenodd" clip-rule="evenodd" d="M3.8335 10.0001C3.8335 9.53984 4.20659 9.16675 4.66683 9.16675H16.3335C16.7937 9.16675 17.1668 9.53984 17.1668 10.0001C17.1668 10.4603 16.7937 10.8334 16.3335 10.8334H4.66683C4.20659 10.8334 3.8335 10.4603 3.8335 10.0001Z" fill="#4640DE"/>
</g>
<defs>
<clipPath id="clip0_31890_486">
<rect width="20" height="20" fill="white" transform="translate(0.5)"/>
</clipPath>
</defs>
</svg>
