<svg width="13" height="10" viewBox="0 0 13 10" fill="none" xmlns="http://www.w3.org/2000/svg">
<path fill-rule="evenodd" clip-rule="evenodd" d="M3.87979 10C8.40485 10 10.8799 6.15218 10.8799 2.81576C10.8799 2.70623 10.8799 2.59752 10.8727 2.48922C11.3542 2.13232 11.7697 1.68918 12.1001 1.18214C11.6516 1.38643 11.1749 1.52041 10.6875 1.57948C11.2007 1.26381 11.5851 0.767869 11.7691 0.182674C11.2859 0.476809 10.7576 0.684398 10.2066 0.79578C9.27485 -0.220776 7.71653 -0.270029 6.72542 0.686221C6.08686 1.3028 5.81525 2.2221 6.01371 3.09897C4.03568 2.99683 2.19256 2.03813 0.943021 0.460998C0.290073 1.61477 0.624042 3.09022 1.70509 3.8311C1.31356 3.8194 0.93043 3.71122 0.588066 3.51554V3.54759C0.588666 4.74936 1.41429 5.78415 2.5619 6.02229C2.19975 6.12382 1.81961 6.13854 1.45147 6.06532C1.77345 7.09418 2.69741 7.79888 3.74968 7.81919C2.87848 8.52191 1.80223 8.90349 0.694193 8.90227C0.498728 8.90165 0.303264 8.88995 0.108398 8.86595C1.23382 9.60683 2.54271 10 3.87979 9.99817" fill="white"/>
</svg>
